<?xml version="1.0" standalone="no"?>
<!DOCTYPE svg PUBLIC "-//W3C//DTD SVG 20010904//EN"
 "http://www.w3.org/TR/2001/REC-SVG-20010904/DTD/svg10.dtd">
<svg version="1.0" xmlns="http://www.w3.org/2000/svg"
 width="48.000000pt" height="48.000000pt" viewBox="0 0 48.000000 48.000000"
 preserveAspectRatio="xMidYMid meet">

<g transform="translate(0.000000,48.000000) scale(0.100000,-0.100000)"
fill="#000000" stroke="none">
<path d="M39 383 c-10 -12 -14 -50 -14 -144 0 -174 -13 -164 215 -164 228 0
215 -10 215 164 0 94 -4 132 -14 144 -12 15 -39 17 -201 17 -162 0 -189 -2
-201 -17z m381 -26 c0 -7 -40 -33 -90 -57 l-90 -44 -90 44 c-50 24 -90 50 -90
57 0 10 39 13 180 13 141 0 180 -3 180 -13z m-265 -89 l85 -42 85 42 c47 23
87 42 90 42 3 0 5 -45 5 -99 0 -81 -3 -100 -16 -105 -20 -8 -308 -8 -328 0
-13 5 -16 24 -16 105 0 54 2 99 5 99 3 0 43 -19 90 -42z"/>
</g>
</svg>
