<?xml version="1.0" standalone="no"?>
<!DOCTYPE svg PUBLIC "-//W3C//DTD SVG 20010904//EN"
 "http://www.w3.org/TR/2001/REC-SVG-20010904/DTD/svg10.dtd">
<svg version="1.0" xmlns="http://www.w3.org/2000/svg"
 width="60.000000pt" height="60.000000pt" viewBox="0 0 60.000000 60.000000"
 preserveAspectRatio="xMidYMid meet">

<g transform="translate(0.000000,60.000000) scale(0.100000,-0.100000)"
fill="#000000" stroke="none">
<path d="M235 487 c-102 -102 -138 -221 -93 -307 68 -132 248 -132 316 0 30
57 25 125 -13 199 -28 55 -122 161 -144 161 -7 0 -36 -24 -66 -53z m114 -43
c51 -54 91 -136 91 -184 0 -19 -10 -51 -22 -70 l-21 -35 -17 51 c-20 58 -65
134 -80 134 -15 0 -60 -76 -80 -134 l-17 -51 -21 35 c-28 46 -28 93 2 157 23
49 99 143 116 143 4 0 26 -20 49 -46z m-16 -229 c16 -43 16 -50 2 -71 -20 -31
-50 -31 -70 -1 -14 21 -14 28 0 66 27 78 41 79 68 6z"/>
</g>
</svg>
