<?xml version="1.0" standalone="no"?>
<!DOCTYPE svg PUBLIC "-//W3C//DTD SVG 20010904//EN"
 "http://www.w3.org/TR/2001/REC-SVG-20010904/DTD/svg10.dtd">
<svg version="1.0" xmlns="http://www.w3.org/2000/svg"
 width="48.000000pt" height="48.000000pt" viewBox="0 0 48.000000 48.000000"
 preserveAspectRatio="xMidYMid meet">

<g transform="translate(0.000000,48.000000) scale(0.100000,-0.100000)"
fill="#000000" stroke="none">
<path d="M149 399 c-126 -88 -119 -75 -119 -210 0 -144 3 -149 96 -149 l64 0
0 80 0 80 50 0 50 0 0 -80 0 -80 64 0 c93 0 96 5 96 149 0 109 -2 119 -22 138
-44 40 -171 123 -188 123 -9 0 -50 -23 -91 -51z m180 -24 c43 -30 84 -61 90
-69 8 -9 11 -52 9 -127 l-3 -114 -57 -3 -58 -3 0 69 c0 39 -5 73 -12 80 -13
13 -85 16 -112 6 -13 -5 -16 -22 -16 -81 l0 -74 -57 3 -58 3 0 120 0 119 85
63 c47 34 91 62 98 62 7 1 48 -24 91 -54z"/>
</g>
</svg>
