<?xml version="1.0" standalone="no"?>
<!DOCTYPE svg PUBLIC "-//W3C//DTD SVG 20010904//EN"
 "http://www.w3.org/TR/2001/REC-SVG-20010904/DTD/svg10.dtd">
<svg version="1.0" xmlns="http://www.w3.org/2000/svg"
 width="48.000000pt" height="48.000000pt" viewBox="0 0 48.000000 48.000000"
 preserveAspectRatio="xMidYMid meet">

<g transform="translate(0.000000,48.000000) scale(0.100000,-0.100000)"
fill="#000000" stroke="none">
<path d="M111 376 c-75 -42 -62 -143 29 -233 56 -55 91 -69 129 -54 65 28 150
139 151 199 1 81 -92 130 -154 81 l-26 -20 -26 20 c-30 24 -68 26 -103 7z m98
-42 l31 -26 31 26 c37 32 65 33 96 4 28 -26 29 -57 3 -107 -22 -45 -105 -121
-130 -121 -25 0 -108 76 -130 121 -26 49 -25 77 2 106 28 30 59 29 97 -3z"/>
</g>
</svg>
