<?xml version="1.0" standalone="no"?>
<!DOCTYPE svg PUBLIC "-//W3C//DTD SVG 20010904//EN"
 "http://www.w3.org/TR/2001/REC-SVG-20010904/DTD/svg10.dtd">
<svg version="1.0" xmlns="http://www.w3.org/2000/svg"
 width="48.000000pt" height="48.000000pt" viewBox="0 0 48.000000 48.000000"
 preserveAspectRatio="xMidYMid meet">

<g transform="translate(0.000000,48.000000) scale(0.100000,-0.100000)"
fill="#000000" stroke="none">
<path d="M110 397 l-65 -22 -3 -157 c-1 -94 1 -158 7 -158 5 0 37 9 70 19 60
19 62 19 125 0 l64 -19 63 22 64 23 3 158 c1 86 -1 157 -5 157 -5 0 -35 -9
-67 -19 -58 -18 -61 -18 -120 0 -73 22 -57 23 -136 -4z m60 -146 l0 -129 -44
-11 c-25 -6 -47 -11 -51 -11 -3 0 -4 57 -3 127 l3 126 35 13 c62 22 60 26 60
-115z m81 117 l39 -11 0 -129 c0 -70 -3 -128 -6 -128 -4 0 -24 5 -45 12 l-39
11 0 129 c0 70 3 128 6 128 4 0 24 -5 45 -12z m159 -114 l0 -125 -35 -15 c-19
-7 -39 -14 -45 -14 -6 0 -10 47 -10 129 l0 128 33 11 c59 19 57 22 57 -114z"/>
</g>
</svg>
