<?xml version="1.0" standalone="no"?>
<!DOCTYPE svg PUBLIC "-//W3C//DTD SVG 20010904//EN"
 "http://www.w3.org/TR/2001/REC-SVG-20010904/DTD/svg10.dtd">
<svg version="1.0" xmlns="http://www.w3.org/2000/svg"
 width="48.000000pt" height="48.000000pt" viewBox="0 0 48.000000 48.000000"
 preserveAspectRatio="xMidYMid meet">

<g transform="translate(0.000000,48.000000) scale(0.100000,-0.100000)"
fill="#000000" stroke="none">
<path d="M53 385 l-33 -14 0 -150 0 -150 35 15 c48 20 104 18 148 -6 l37 -20
37 20 c44 24 100 26 148 6 l35 -15 0 150 0 150 -35 15 c-45 18 -95 18 -145 -2
-37 -15 -43 -15 -80 0 -49 20 -104 20 -147 1z m136 -26 l31 -11 0 -120 0 -119
-22 8 c-13 4 -51 8 -85 8 l-63 -1 0 117 c0 104 2 118 18 122 33 9 89 7 121 -4z
m219 5 c21 -6 22 -10 22 -123 l0 -117 -62 1 c-35 0 -73 -4 -85 -8 l-23 -8 0
119 0 120 28 10 c31 12 87 14 120 6z"/>
</g>
</svg>
