<?xml version="1.0" standalone="no"?>
<!DOCTYPE svg PUBLIC "-//W3C//DTD SVG 20010904//EN"
 "http://www.w3.org/TR/2001/REC-SVG-20010904/DTD/svg10.dtd">
<svg version="1.0" xmlns="http://www.w3.org/2000/svg"
 width="1024.000000pt" height="1024.000000pt" viewBox="0 0 1024.000000 1024.000000"
 preserveAspectRatio="xMidYMid meet">

<g transform="translate(0.000000,1024.000000) scale(0.100000,-0.100000)"
fill="#FF655B" stroke="none">
<path d="M5430 8048 c0 -382 47 -616 181 -896 86 -183 184 -328 381 -569 620
-754 817 -1042 966 -1418 157 -394 198 -839 116 -1244 -140 -694 -655 -1265
-1344 -1489 -735 -239 -1544 -44 -2097 505 -296 295 -482 676 -539 1106 -20
149 -14 454 10 592 56 312 170 588 358 870 82 124 256 341 264 332 3 -2 -1
-38 -7 -78 -17 -110 -7 -300 20 -370 78 -205 334 -270 496 -127 94 83 131 182
122 328 -6 94 -31 184 -100 364 -155 398 -140 734 49 1134 151 320 473 697
826 968 95 72 275 192 291 194 4 0 7 -91 7 -202z"/>
</g>
</svg>
