<?xml version="1.0" standalone="no"?>
<!DOCTYPE svg PUBLIC "-//W3C//DTD SVG 20010904//EN"
 "http://www.w3.org/TR/2001/REC-SVG-20010904/DTD/svg10.dtd">
<svg version="1.0" xmlns="http://www.w3.org/2000/svg"
 width="48.000000pt" height="48.000000pt" viewBox="0 0 48.000000 48.000000"
 preserveAspectRatio="xMidYMid meet">

<g transform="translate(0.000000,48.000000) scale(0.100000,-0.100000)"
fill="#000000" stroke="none">
<path d="M172 429 c-48 -14 -109 -80 -123 -131 -23 -89 12 -182 88 -229 57
-36 154 -34 210 3 62 41 88 90 88 168 0 77 -26 127 -85 166 -43 29 -125 39
-178 23z m148 -42 c82 -43 114 -158 66 -232 l-18 -27 -26 25 c-69 64 -135 64
-204 0 l-26 -25 -18 27 c-67 102 20 255 146 255 20 0 56 -10 80 -23z m-1 -252
c25 -25 25 -26 7 -40 -41 -31 -130 -31 -172 -1 -18 14 -18 15 1 36 28 31 54
40 99 36 25 -3 48 -14 65 -31z"/>
<path d="M211 326 c-31 -37 9 -103 47 -80 36 23 23 94 -18 94 -10 0 -23 -6
-29 -14z"/>
</g>
</svg>
